<?xml version="1.0" encoding="UTF-8"?>
<svg xmlns="http://www.w3.org/2000/svg" xmlns:xlink="http://www.w3.org/1999/xlink" viewBox="0 0 1280 1024">
  <defs>
    <style>
      .cls-1 {
        filter: url(#drop-shadow-5);
      }

      .cls-1, .cls-2, .cls-3, .cls-4, .cls-5, .cls-6, .cls-7 {
        stroke-width: 0px;
      }

      .cls-1, .cls-3, .cls-4, .cls-6, .cls-7 {
        fill: #ffce00;
      }

      .cls-1, .cls-4 {
        opacity: .34;
      }

      .cls-1, .cls-4, .cls-7 {
        mix-blend-mode: multiply;
      }

      .cls-8 {
        isolation: isolate;
      }

      .cls-9 {
        opacity: .2;
      }

      .cls-9, .cls-2, .cls-10, .cls-11 {
        fill: none;
      }

      .cls-9, .cls-10, .cls-11 {
        mix-blend-mode: screen;
        stroke: #ffce00;
        stroke-miterlimit: 10;
        stroke-width: 2px;
      }

      .cls-10 {
        opacity: .52;
      }

      .cls-3 {
        filter: url(#drop-shadow-1);
      }

      .cls-4 {
        filter: url(#drop-shadow-4);
      }

      .cls-11 {
        opacity: .32;
      }

      .cls-5 {
        fill: url(#radial-gradient);
      }

      .cls-6 {
        filter: url(#drop-shadow-3);
      }

      .cls-7 {
        filter: url(#drop-shadow-2);
        opacity: .72;
      }
    </style>
    <radialGradient id="radial-gradient" cx="1136.24" cy="229.53" fx="1136.24" fy="229.53" r="1019.14" gradientUnits="userSpaceOnUse">
      <stop offset="0" stop-color="#f8ce00"/>
      <stop offset=".66" stop-color="#f0b900"/>
      <stop offset=".82" stop-color="#eeb400"/>
    </radialGradient>
    <filter id="drop-shadow-1" filterUnits="userSpaceOnUse">
      <feOffset dx="11" dy="16"/>
      <feGaussianBlur result="blur" stdDeviation="53"/>
      <feFlood flood-color="#874d00" flood-opacity=".32"/>
      <feComposite in2="blur" operator="in"/>
      <feComposite in="SourceGraphic"/>
    </filter>
    <filter id="drop-shadow-2" filterUnits="userSpaceOnUse">
      <feOffset dx="-34" dy="16"/>
      <feGaussianBlur result="blur-2" stdDeviation="53"/>
      <feFlood flood-color="#632f00" flood-opacity=".45"/>
      <feComposite in2="blur-2" operator="in"/>
      <feComposite in="SourceGraphic"/>
    </filter>
    <filter id="drop-shadow-3" filterUnits="userSpaceOnUse">
      <feOffset dx="11" dy="16"/>
      <feGaussianBlur result="blur-3" stdDeviation="53"/>
      <feFlood flood-color="#632f00" flood-opacity=".34"/>
      <feComposite in2="blur-3" operator="in"/>
      <feComposite in="SourceGraphic"/>
    </filter>
    <filter id="drop-shadow-4" filterUnits="userSpaceOnUse">
      <feOffset dx="11" dy="16"/>
      <feGaussianBlur result="blur-4" stdDeviation="53"/>
      <feFlood flood-color="#6b3500" flood-opacity=".91"/>
      <feComposite in2="blur-4" operator="in"/>
      <feComposite in="SourceGraphic"/>
    </filter>
    <filter id="drop-shadow-5" filterUnits="userSpaceOnUse">
      <feOffset dx="11" dy="16"/>
      <feGaussianBlur result="blur-5" stdDeviation="53"/>
      <feFlood flood-color="#4c2400" flood-opacity=".91"/>
      <feComposite in2="blur-5" operator="in"/>
      <feComposite in="SourceGraphic"/>
    </filter>
  </defs>
  <g class="cls-8">
    <g id="Layer_1" data-name="Layer 1">
      <rect class="cls-5" x="-171.46" y="-248.39" width="2102.33" height="1062.79"/>
      <g>
        <g>
          <path class="cls-3" d="M-305.83-623.7c-17.22,102.9,34.24,214.57,120.67,261.91,112.6,61.67,270.68,23.48,353.55,126.08,58.83,72.83,49.29,182.91,81.9,272.85,25.7,70.86,79.59,129.22,145.28,157.29,65.12,27.83,137.36,26.1,207.26,32.17,69.89,6.07,144.13,23.14,192.22,77.95,41.99,47.86,57.38,117.26,98.87,165.61,83.1,96.84,231.03,73.55,341.27,131.09,98.37,51.35,159.81,171.7,152.99,289.29-6.82,117.59-78.69,226.87-177.14,278.63-147.46,77.53-321.82,28.42-480.88-13.82-241.21-64.06-486.95-109.16-724.85-186.13-237.9-76.98-470.98-188.52-655.03-367.86-44.38-43.24-87.25-93.19-101.89-155.71-9.65-41.22-6.18-84.61-1.21-126.81,17.04-144.62,50.92-286.3,84.72-427.52,22.08-92.25,44.44-185.34,84.45-270.35,40.01-85.02,99.66-162.48,179.3-204.12"/>
          <path class="cls-7" d="M-567.36-384.81c-8.75,94.15,62.24,195.01,166.5,236.57C-265.05-94.1-87.71-131.86,18.37-39.85,93.67,25.46,94.51,126.02,141.56,207.42c37.07,64.14,105.17,116.34,183.55,140.72,77.72,24.17,160.43,21.24,241.3,25.47,80.86,4.23,167.88,18.42,228.93,67.5,53.31,42.86,78.39,105.85,131.19,149.17,105.73,86.75,273.01,62.77,405.67,113.18,118.38,44.99,201.77,153.59,206.52,260.94,4.75,107.35-66.05,208.34-173.49,257.37-160.94,73.44-366.29,31.9-553.36-3.66-283.68-53.92-570.52-90.47-851.78-156.23-281.26-65.76-560.68-163.13-791.09-323.23-55.56-38.6-110.1-83.35-133.59-140.09-15.48-37.4-16.14-77.03-14.95-115.61,4.09-132.19,27.82-262,51.5-391.4,15.47-84.53,31.18-169.82,68.01-248.09,36.82-78.27,97-150.01,183.94-189.46"/>
          <path class="cls-6" d="M-330.26,227.07c16.57,103.12,119.46,189.14,241.31,201.77,158.73,16.44,336.22-77.8,473.84-11.9,97.69,46.78,126.17,153.81,198.35,226.35,56.87,57.16,143.33,92.14,233.05,94.3,88.96,2.14,175.78-26.15,262.59-46.23,86.82-20.08,182.89-31.43,261.03,2.37,68.23,29.51,112.09,89.09,179.91,119.25,135.81,60.4,306.42-16.09,460.79-2.66,137.75,11.99,255.89,102.49,290.38,215.59,34.49,113.1-12.78,242.39-113.13,327.39-150.32,127.32-379.25,145.48-587.17,164.45-315.29,28.77-629.18,77.04-945.16,92.44-315.98,15.4-638.7-3.48-926.71-104.21-69.45-24.29-139.5-55.44-179.96-108.83-26.67-35.2-38.24-77.28-47.57-118.81-31.95-142.29-42.45-288.02-52.87-433.29-6.81-94.89-13.58-190.69,3.94-285.4,17.52-94.71,61.57-189.57,142.84-258.12"/>
          <path class="cls-4" d="M-432.91,339.82c84.13,59.54,173.33,121.4,287.88,151.11,157.12,40.75,340.72,15.1,482.38,77.26,130.16,57.11,182.94,172.14,321.72,219.01,76.47,25.83,163.12,25.14,246.06,29.34,142.99,7.24,294.99,34.02,403.62,100.5,47.88,29.3,87.32,72.74,66.28,108.69-13.59,23.22-49.32,37.2-86.06,45.65-70.79,16.28-150.27,17.07-228.31,16.81-368.77-1.27-740.93-22.46-1111.2-63.26-105.9-11.67-212.57-25.11-314.19-51.63-101.62-26.52-198.87-67.22-265.87-123.87-118.49-100.2-123.14-232-83.09-344.63"/>
          <path class="cls-1" d="M-307.38-225.17c51.6-39.03,118,12.95,159.94,61.51,32.63,37.79,65.8,76.43,85.43,123.42C-28.72,39.42-38.12,133.43-10.16,215.46c57.18,167.78,246.13,234.87,348.68,375.42,70.8,97.04,96.19,230.19,66.92,350.94-8.94,36.86-25.96,76.21-59.16,90.76-22.19,9.73-47.13,6.24-70.44,1.53-179.47-36.31-340.87-134.49-493.92-238.41-168.02-114.07-336.51-243.89-428.74-431.9-92.23-188.01-84.59-449.04,68.45-591.54"/>
        </g>
        <path class="cls-10" d="M298.66-337.42c-12.89,86.11,16.28,175.7,70.03,244.2,53.74,68.5,130.34,116.9,212.42,145.95,110.51,39.1,239.27,49.22,320.93,133.33,64.23,66.15,84.89,165.46,148.86,231.86,106.38,110.44,291.6,94.03,417.59,181.44,47.61,33.03,84.19,79.25,125.97,119.41,81.87,78.69,185.42,134.6,296.13,159.88"/>
        <path class="cls-9" d="M193.29-300.25c-2.75,87.05,37.02,172.79,98.9,234.78s144.25,101.41,229.83,120.96c115.23,26.33,245.3,21.77,336.95,96.11,72.09,58.47,104.49,154.82,176.35,213.57,119.51,97.7,302.96,60.37,439.38,132.96,51.55,27.43,93.62,69.22,140.17,104.39,91.23,68.93,201.47,112.75,315.26,125.31"/>
        <path class="cls-11" d="M-128.08-212c96.35-32.29,207.73-15.72,290.51,43.23C295.84-73.77,351.45,116.67,503.58,177.34c117.02,46.67,249.03-1.35,374.77,6.51,111.47,6.98,219.27,60.7,291.94,145.51,46.53,54.3,83.04,123.59,149.38,150.3,53.81,21.68,114.58,9.67,172.41,14.36,82.31,6.68,161.01,49.7,211.06,115.38,42.07,55.21,63.74,123.89,106.38,178.66,64.92,83.4,178.54,125.75,282.21,105.2"/>
      </g>
      <rect class="cls-2" x="-131.92" y="-210.95" width="2000" height="1000"/>
    </g>
  </g>
</svg>